<svg class="icon" viewBox="0 0 1024 1024" xmlns="http://www.w3.org/2000/svg" width="500" height="500"><defs><style/></defs><path d="M424.495 902.237h-93.091v-19.642c-7.727-2.048-15.267-4.468-22.808-7.168-4.84-1.769-9.681-3.63-14.429-5.679v41.798c0 15.36 12.568 27.927 27.928 27.927h111.709c15.36 0 27.927-12.567 27.927-27.927v-18.618h-37.236v9.31zm262.516 0H593.92v-9.309h-37.236v18.618c0 15.36 12.567 27.927 27.927 27.927H696.32c15.36 0 27.927-12.567 27.927-27.927v-35.002c-12.102 4.468-24.483 8.099-37.236 10.799v14.894zm13.777-56.972c-.465.094-.93.28-1.396.466.465-.186.93-.28 1.396-.466z" fill="#353535"/><path d="M835.398 428.497c-5.306 0-10.426-2.327-13.964-6.237 22.807 40.96 35.002 87.32 35.002 135.54v74.473c0 59.672-23.272 115.806-65.443 157.976-25.693 25.693-56.599 44.311-90.205 55.016-.465.187-.93.28-1.396.466-21.225 6.61-43.567 9.96-66.374 9.96H409.6c-30.348 0-60.044-5.12-88.343-15.36-27.369-9.867-52.69-24.11-75.404-42.542-45.521-36.77-77.638-88.25-90.484-144.942-3.538-15.454-16.943-26.159-32.675-26.159h-57.53v-91.23h50.269c18.525 0 33.512-14.987 33.512-33.512 0-42.729 12.102-84.34 35.003-120.18 17.408-27.183 40.401-50.27 67.304-67.584a148.027 148.027 0 0 0-5.306-37.888 26.831 26.831 0 0 1-.558-1.955c-37.61 20.945-69.446 50.92-92.719 87.412-26.065 40.774-40.215 87.971-40.867 136.565H65.164c-20.573 0-37.237 16.663-37.237 37.236v91.23c0 20.572 16.664 37.235 37.237 37.235h54.55c15.082 63.675 51.48 121.484 102.68 162.91 21.877 17.687 45.987 32.116 71.773 42.914 4.748 1.955 9.589 3.91 14.43 5.679 7.54 2.7 15.173 5.12 22.807 7.168 25.32 6.889 51.572 10.333 78.196 10.333h223.418c18.34 0 36.492-1.862 53.993-5.585 12.753-2.7 25.134-6.237 37.236-10.799 34.537-12.846 66.188-33.14 92.998-59.95 49.245-49.246 76.335-114.688 76.335-184.32v-74.473c0-42.729-8.379-84.154-24.856-123.16a293.583 293.583 0 0 0-7.075-15.546c-6.144 2.886-12.753 5.586-19.642 8.285-2.14.652-4.468 1.024-6.61 1.024z" fill="#353535"/><path d="M372.364 278.528h204.8c74.565 0 144.756 29.044 197.445 81.827 16.85 16.85 31.279 35.468 43.102 55.389-3.166-9.402 1.675-19.642 10.984-23.273 5.306-2.048 10.147-4.003 14.616-6.05a325.99 325.99 0 0 0-42.357-52.504c-29.044-29.044-62.93-51.852-100.631-67.863-39.005-16.477-80.524-24.855-123.16-24.855h-204.8c-13.59 0-27.275 1.117-40.68 3.165 12.381 12.66 21.038 24.483 26.996 34.443 4.562-.093 9.123-.279 13.685-.279zM238.313 454.656a27.927 23.273 90 1 0 46.545 0 27.927 23.273 90 1 0-46.545 0z" fill="#353535"/><path d="M251.252 314.182c.093 8.099-.558 14.801-1.21 19.363-1.117 8.378 1.49 16.663 7.261 22.807a27.825 27.825 0 0 0 20.387 8.844c.652 0 1.303 0 1.955-.093 9.495-.652 24.204-2.793 40.308-9.123 19.084-7.54 33.14-14.988 41.705-22.25 8.75-7.353 12.102-19.083 8.565-29.974-1.77-5.307-5.12-14.057-11.637-24.856-6.05-10.053-14.708-21.876-26.996-34.443-8.285-8.472-18.246-17.315-30.162-26.159-20.666-15.36-39.75-23.738-52.13-28.02-8.565-2.98-17.967-.466-24.018 6.237-6.05 6.796-7.354 16.384-3.444 24.576 11.822 24.39 20.387 43.939 23.365 53.062.187.744.466 1.396.559 1.955a143.461 143.461 0 0 1 5.492 38.074zm28.02-66.002c9.775 7.261 40.868 31.93 53.249 60.789-4.748 2.886-12.847 7.168-26.159 12.38-6.61 2.607-12.753 4.19-18.246 5.214 1.024-15.919.187-36.864-6.33-60.323-1.582-5.492-4.561-13.405-8.285-22.156 1.955 1.304 3.817 2.7 5.772 4.096z" fill="#353535"/><path d="M382.604 214.854h102.4c10.24 0 18.618-8.378 18.618-18.618s-8.378-18.619-18.618-18.619h-102.4c-10.24 0-18.619 8.379-18.619 18.619s8.286 18.618 18.619 18.618zm0-46.546h102.4c10.24 0 18.618-8.378 18.618-18.618s-8.378-18.618-18.618-18.618h-102.4c-10.24 0-18.619 8.378-18.619 18.618s8.286 18.618 18.619 18.618zm148.945 47.477h102.4c10.24 0 18.618-8.378 18.618-18.618s-8.378-18.619-18.618-18.619h-102.4c-10.24 0-18.618 8.379-18.618 18.619s8.285 18.618 18.618 18.618zm0-46.546h102.4c10.24 0 18.618-8.378 18.618-18.618s-8.378-18.618-18.618-18.618h-102.4c-10.24 0-18.618 8.378-18.618 18.618s8.285 18.618 18.618 18.618zm-148.945-47.476h102.4c10.24 0 18.618-8.378 18.618-18.618s-8.378-18.618-18.618-18.618h-102.4c-10.24 0-18.619 8.378-18.619 18.618s8.286 18.618 18.619 18.618z" fill="#d81e06" data-spm-anchor-id="a313x.7781069.0.i1" class="selected"/><path d="M986.857 283.927c-8.844-5.12-20.294-2.14-25.414 6.796-7.727 13.219-18.804 28.672-27.834 38.074-4.19-20.294-20.201-34.35-35.375-38.167-17.78-4.469-36.678 3.537-46.918 19.735-10.24 16.291-9.216 36.026 2.607 50.455 4.468 5.4 9.309 9.496 14.336 12.568-6.516 4.096-14.708 8.47-24.855 13.032-4.469 1.955-9.31 4.003-14.616 6.051-9.309 3.538-14.15 13.87-10.984 23.273l.279.838a19.3 19.3 0 0 0 3.444 5.678c3.538 4.003 8.658 6.237 13.964 6.237 2.234 0 4.468-.372 6.702-1.21 6.89-2.7 13.499-5.399 19.643-8.285 22.341-10.24 39.75-21.69 51.851-34.164 2.42-2.42 4.562-4.934 6.424-7.261a154.764 154.764 0 0 0 16.384-5.586c12.101-4.654 25.227-16.663 39.936-36.584 9.867-13.312 16.942-25.507 17.221-26.066 5.12-8.844 2.048-20.2-6.795-25.414zm-90.205 59.858c-7.727 0-11.264-3.072-14.057-6.517-2.048-2.42-1.024-5.12.093-6.981.28-.373 2.42-3.631 5.4-3.631.372 0 .65 0 1.023.093 2.234.559 7.727 4.655 8.1 11.45.185 1.862 0 3.63-.56 5.586z" fill="#353535"/></svg>