<svg class="icon" viewBox="0 0 1024 1024" xmlns="http://www.w3.org/2000/svg" width="500" height="500"><defs><style/></defs><path d="M656.315 698.155a15.721 15.721 0 0 1-10.01-3.576c-6.764-5.532-7.762-15.497-2.225-22.26L745.82 547.97c41.702-52.888 63.743-116.545 63.743-184.095 0-164.079-133.486-297.567-297.566-297.567-164.075 0-297.56 133.487-297.56 297.567 0 82.482 32.948 159.154 92.77 215.911l100.076 90.836c6.474 5.873 6.956 15.878 1.081 22.344-5.874 6.473-15.877 6.957-22.345 1.083L285.814 603.1c-.085-.074-.166-.156-.245-.233-32.12-30.437-57.393-66.333-75.12-106.696-18.348-41.782-27.653-86.297-27.653-132.3 0-87.931 34.242-170.602 96.416-232.78 62.173-62.179 144.85-96.421 232.785-96.421 87.941 0 170.612 34.242 232.791 96.421 62.175 62.178 96.417 144.85 96.417 232.785 0 37.64-6.301 74.56-18.726 109.733-12.014 34-29.478 65.65-51.903 94.064-.06.077-.115.152-.175.222L668.569 692.35a15.784 15.784 0 0 1-12.254 5.804M372.873 806.867c-7.73 0-14.488-5.666-15.638-13.543-1.262-8.645 4.726-16.671 13.371-17.936l289.857-42.265c8.652-1.258 16.68 4.73 17.939 13.377 1.257 8.64-4.727 16.673-13.372 17.936l-289.859 42.265c-.773.11-1.537.166-2.298.166" fill="#333"/><path d="M378.054 885.453c-7.726 0-14.487-5.666-15.633-13.544-1.264-8.64 4.726-16.673 13.372-17.936l289.857-42.265c8.652-1.257 16.678 4.726 17.936 13.371 1.258 8.647-4.724 16.678-13.37 17.944l-289.858 42.263c-.776.111-1.544.167-2.304.167" fill="#333" data-spm-anchor-id="a313x.7781069.0.i23"/><path d="M512.636 989.331c-43.286 0-83.048-23.627-103.763-61.66-4.184-7.675-1.348-17.281 6.327-21.464 7.668-4.176 17.275-1.347 21.458 6.328 15.172 27.855 44.288 45.157 75.978 45.157 30.769 0 59.47-16.563 74.906-43.222 4.379-7.558 14.062-10.14 21.622-5.762 7.559 4.379 10.14 14.057 5.762 21.615-21.073 36.397-60.266 59.008-102.29 59.008" fill="#333"/><path d="M325.019 386.347c-8.738 0-15.824-7.086-15.824-15.824 0-111.815 90.978-202.78 202.802-202.78 8.737 0 15.822 7.08 15.822 15.817 0 8.742-7.085 15.821-15.822 15.821-94.376 0-171.157 76.774-171.157 171.142 0 8.742-7.085 15.824-15.821 15.824" fill="#d81e06" data-spm-anchor-id="a313x.7781069.0.i24" class="selected"/></svg>